<svg class="IconWrap-module__9M-XmW__icon ButtonMode-module__6wivga__icon" xmlns="http://www.w3.org/2000/svg" width="24"
    height="24" viewBox="0 0 56 56" fill="none">
    <g stroke="#fff" stroke-miterlimit="10" stroke-width="2.108" clip-path="url(#clip0_6250_38)">
        <path
            d="M27.85 54.796c14.715 0 26.645-11.93 26.645-26.645S42.565 1.505 27.85 1.505 1.203 13.435 1.203 28.151c0 14.715 11.93 26.645 26.646 26.645Z">
        </path>
        <path d="M28.112 25.337a6.257 6.257 0 1 0 0-12.515 6.257 6.257 0 0 0 0 12.515Z"></path>
        <path
            d="M35.505 27.984a11.55 11.55 0 0 0 4.159-8.888c0-6.389-5.173-11.57-11.553-11.57-6.379 0-11.552 5.182-11.552 11.57a11.55 11.55 0 0 0 4.159 8.888 11.55 11.55 0 0 0-4.159 8.889c0 6.388 5.173 11.568 11.552 11.568 6.38 0 11.553-5.18 11.553-11.568a11.55 11.55 0 0 0-4.16-8.889Z">
        </path>
        <path d="M28.112 43.147a6.257 6.257 0 1 0 0-12.515 6.257 6.257 0 0 0 0 12.515Z"></path>
    </g>
    <defs>
        <clipPath id="clip0_6250_38">
            <path fill="#fff" d="M0 0h56v56H0z"></path>
        </clipPath>
    </defs>
</svg>