<svg class="IconWrap-module__9M-XmW__icon ButtonMode-module__6wivga__icon" xmlns="http://www.w3.org/2000/svg" width="24"
    height="24" viewBox="0 0 56 56" fill="none">
    <g clip-path="url(#clip0_6233_854)">
        <path fill="#000" stroke="#fff" stroke-miterlimit="10" stroke-width="2.108"
            d="M28 54.705c14.69 0 26.6-11.909 26.6-26.6 0-14.69-11.91-26.6-26.6-26.6s-26.6 11.91-26.6 26.6 11.91 26.6 26.6 26.6Z">
        </path>
        <g fill="#fff" opacity="0.3">
            <circle cx="34.622" cy="28.189" r="1.778" transform="rotate(-180 34.622 28.189)"></circle>
            <circle cx="18.276" cy="37.876" r="1.778" transform="rotate(-180 18.276 37.876)"></circle>
            <circle cx="29.022" cy="39.238" r="1.778" transform="rotate(-180 29.022 39.238)"></circle>
            <circle cx="23.951" cy="31.065" r="1.778" transform="rotate(-180 23.951 31.065)"></circle>
            <circle cx="25.692" cy="17.519" r="1.778" transform="rotate(-180 25.692 17.519)"></circle>
            <circle cx="29.249" cy="10.784" r="1.778" transform="rotate(-180 29.249 10.784)"></circle>
            <circle cx="14.719" cy="21.908" r="1.778" transform="rotate(-180 14.72 21.908)"></circle>
            <circle cx="20.924" cy="15.703" r="1.778" transform="rotate(-180 20.924 15.703)"></circle>
            <circle cx="11.995" cy="14.87" r="1.778" transform="rotate(-180 11.995 14.87)"></circle>
            <circle cx="7.53" cy="26.448" r="1.778" transform="rotate(-180 7.53 26.448)"></circle>
            <circle cx="3.822" cy="22.438" r="1.778" transform="rotate(-180 3.822 22.438)"></circle>
            <circle cx="11.238" cy="32.805" r="1.778" transform="rotate(-180 11.238 32.805)"></circle>
            <circle cx="4.2" cy="32.805" r="1.778" transform="rotate(-180 4.2 32.805)"></circle>
            <circle cx="11.162" cy="39.692" r="1.778" transform="rotate(-180 11.162 39.692)"></circle>
            <circle cx="10.633" cy="45.822" r="1.778" transform="rotate(-180 10.633 45.822)"></circle>
            <circle cx="18.352" cy="29.021" r="1.778" transform="rotate(-180 18.352 29.021)"></circle>
            <circle cx="27.433" cy="24.632" r="1.778" transform="rotate(-180 27.433 24.632)"></circle>
            <circle cx="37.876" cy="5.335" r="1.778" transform="rotate(-180 37.876 5.335)"></circle>
            <circle cx="23.876" cy="10.784" r="1.778" transform="rotate(-180 23.876 10.784)"></circle>
            <circle cx="27.206" cy="3.594" r="1.778" transform="rotate(-180 27.206 3.594)"></circle>
            <circle cx="9.346" cy="19.335" r="1.778" transform="rotate(-180 9.346 19.335)"></circle>
            <circle cx="36.362" cy="14.34" r="1.778" transform="rotate(-180 36.362 14.34)"></circle>
            <circle cx="19.562" cy="4.049" r="1.778" transform="rotate(-180 19.562 4.049)"></circle>
            <circle cx="34.622" cy="22.513" r="1.778" transform="rotate(-90 34.622 22.513)"></circle>
            <circle cx="44.157" cy="8.665" r="1.778" transform="rotate(-180 44.157 8.665)"></circle>
            <circle cx="52.103" cy="24.632" r="1.778" transform="rotate(-180 52.103 24.632)"></circle>
            <circle cx="49.908" cy="31.292" r="1.778" transform="rotate(-180 49.908 31.292)"></circle>
            <circle cx="44.687" cy="18.956" r="1.778" transform="rotate(-90 44.687 18.956)"></circle>
            <circle cx="46.73" cy="23.648" r="1.778" transform="rotate(-90 46.73 23.648)"></circle>
            <circle cx="42.265" cy="30.611" r="1.778" transform="rotate(-90 42.265 30.61)"></circle>
            <circle cx="41.811" cy="49.984" r="1.778" transform="rotate(-180 41.811 49.984)"></circle>
            <circle cx="44.687" cy="42.189" r="1.778" transform="rotate(-180 44.687 42.19)"></circle>
            <circle cx="49.53" cy="40.903" r="1.778" transform="rotate(-180 49.53 40.903)"></circle>
            <circle cx="31.671" cy="53.238" r="1.778" transform="rotate(-180 31.67 53.238)"></circle>
            <circle cx="34.47" cy="47.335" r="1.778" transform="rotate(-180 34.47 47.335)"></circle>
            <circle cx="24.935" cy="44.989" r="1.778" transform="rotate(-180 24.935 44.99)"></circle>
            <circle cx="28.189" cy="34.243" r="1.778" transform="rotate(-180 28.19 34.243)"></circle>
            <circle cx="22.06" cy="40.903" r="1.778" transform="rotate(-180 22.06 40.903)"></circle>
            <circle cx="16.308" cy="43.779" r="1.778" transform="rotate(-180 16.308 43.779)"></circle>
            <circle cx="39.692" cy="42.265" r="1.778" transform="rotate(-180 39.692 42.265)"></circle>
            <circle cx="17.368" cy="9.421" r="1.778" transform="rotate(-180 17.368 9.421)"></circle>
            <circle cx="44.081" cy="35.984" r="1.778" transform="rotate(-180 44.081 35.984)"></circle>
            <circle cx="25.389" cy="52.33" r="1.778" transform="rotate(-180 25.39 52.33)"></circle>
            <circle cx="34.849" cy="37.8" r="1.778" transform="rotate(-180 34.849 37.8)"></circle>
        </g>
        <circle cx="10.557" cy="9.724" r="1.778" fill="#fff"></circle>
        <circle cx="9.043" cy="23.951" r="1.778" fill="#fff"></circle>
        <circle cx="5.487" cy="30.686" r="1.778" fill="#fff"></circle>
        <circle cx="20.244" cy="20.697" r="1.778" fill="#fff"></circle>
        <circle cx="16.384" cy="26.6" r="1.778" fill="#fff"></circle>
        <circle cx="25.919" cy="28.946" r="1.778" fill="#fff"></circle>
        <circle cx="23.649" cy="39.692" r="1.778" fill="#fff"></circle>
        <circle cx="30.384" cy="33.032" r="1.778" fill="#fff"></circle>
        <circle cx="35.833" cy="30.762" r="1.778" fill="#fff"></circle>
        <circle cx="27.206" cy="15.022" r="1.778" fill="#fff"></circle>
        <circle cx="23.497" cy="8.665" r="1.778" fill="#fff"></circle>
        <circle cx="30.535" cy="8.665" r="1.778" fill="#fff"></circle>
        <circle cx="38.784" cy="9.195" r="1.778" fill="#fff"></circle>
        <circle cx="29.779" cy="2.914" r="1.778" fill="#fff"></circle>
        <circle cx="16.384" cy="12.449" r="1.778" fill="#fff"></circle>
        <circle cx="7.303" cy="16.838" r="1.778" fill="#fff"></circle>
        <circle cx="10.86" cy="30.686" r="1.778" fill="#fff"></circle>
        <circle cx="5.487" cy="38.178" r="1.778" fill="#fff"></circle>
        <circle cx="25.39" cy="22.135" r="1.778" fill="#fff"></circle>
        <circle cx="16.46" cy="37.497" r="1.778" fill="#fff"></circle>
        <circle cx="20.168" cy="33.486" r="1.778" fill="#fff"></circle>
        <circle cx="17.746" cy="46.427" r="1.778" fill="#fff"></circle>
        <circle cx="20.016" cy="51.422" r="1.778" fill="#fff"></circle>
        <circle cx="36.362" cy="20.395" r="1.778" fill="#fff" transform="rotate(90 36.362 20.395)"></circle>
        <circle cx="31.065" cy="18.957" r="1.778" fill="#fff" transform="rotate(90 31.065 18.957)"></circle>
        <circle cx="34.092" cy="13.962" r="1.778" fill="#fff" transform="rotate(90 34.092 13.962)"></circle>
        <circle cx="41.962" cy="38.178" r="1.778" fill="#fff"></circle>
        <circle cx="32.125" cy="39.54" r="1.778" fill="#fff"></circle>
        <circle cx="35.227" cy="44.611" r="1.778" fill="#fff"></circle>
        <circle cx="41.887" cy="47.032" r="1.778" fill="#fff"></circle>
        <circle cx="33.108" cy="51.951" r="1.778" fill="#fff"></circle>
        <circle cx="25.616" cy="46.805" r="1.778" fill="#fff"></circle>
        <circle cx="52.481" cy="21.757" r="1.778" fill="#fff"></circle>
        <circle cx="48.243" cy="28.871" r="1.778" fill="#fff"></circle>
        <circle cx="50.06" cy="15.022" r="1.778" fill="#fff"></circle>
        <circle cx="43.93" cy="13.66" r="1.778" fill="#fff"></circle>
        <circle cx="53.616" cy="28.871" r="1.778" fill="#fff"></circle>
        <circle cx="49.076" cy="36.135" r="1.778" fill="#fff"></circle>
        <circle cx="41.13" cy="25.314" r="1.778" fill="#fff"></circle>
        <circle cx="42.189" cy="18.579" r="1.778" fill="#fff" transform="rotate(90 42.19 18.579)"></circle>
        <path stroke="#fff" stroke-miterlimit="10" stroke-width="2.108"
            d="M28 54.705c14.69 0 26.6-11.909 26.6-26.6 0-14.69-11.91-26.6-26.6-26.6s-26.6 11.91-26.6 26.6 11.91 26.6 26.6 26.6Z">
        </path>
    </g>
    <defs>
        <clipPath id="clip0_6233_854">
            <path fill="#fff" d="M0 0h56v56H0z"></path>
        </clipPath>
    </defs>
</svg>