<svg class="IconWrap-module__9M-XmW__icon ButtonMode-module__6wivga__icon" xmlns="http://www.w3.org/2000/svg" width="24"
    height="24" viewBox="0 0 56 56" fill="none">
    <g clip-path="url(#dba2c78f-801c-4f91-84c2-443db0e4af08)">
        <path stroke="#fff" stroke-linecap="round" stroke-linejoin="round" stroke-miterlimit="10" stroke-width="2"
            d="M28 54.035c14.82 0 26.833-11.768 26.833-26.285C54.833 13.232 42.82 1.463 28 1.463c-14.82 0-26.833 11.768-26.833 26.286S13.18 54.035 28 54.035z">
        </path>
        <path fill="#fff"
            d="M30.377 15.595c-.073.071-.11.107-.11.143-.44.535-.915 1.07-1.28 1.677-.184.321-.257.678-.11 1.035.146.32.365.606.768.642.366.036.805-.214.951-.535.11-.214.147-.464.11-.714-.037-.25-.073-.464-.11-.714-.073-.392-.11-.785-.183-1.177.037-.072 0-.214-.036-.357zm-4.794-.892c-.073-.107-.11-.178-.183-.285-.037-.036-.037-.072-.073-.107-.842-.893-1.903-1.142-3.074-.821-.768.214-1.207.749-1.28 1.534 0 .179-.037.321 0 .5.036.927.439 1.712 1.06 2.426.586.678 1.281 1.249 2.013 1.784.512.357 1.061.678 1.647.892.33.107.695.179 1.061.107.44-.071.659-.32.622-.749 0-.214-.073-.428-.146-.642-.147-.393-.33-.785-.476-1.213l-.769-2.57c-.11-.285-.22-.606-.402-.856zm10.502 1.784c-.11-.321-.183-.5-.366-.785-.293-.357-.549-.714-.841-1.07-.33-.393-.66-.75-.915-1.214a1.733 1.733 0 01-.183-1.284c.146-.678.512-1.213.988-1.677a.806.806 0 01.183-.107c.293-.179.549-.143.768.178.073.143.147.321.22.464.512 1.356.878 2.747 1.207 4.175.037.178.074.321.183.5 0-.072.037-.143.037-.215.073-.75-.037-1.498-.183-2.248-.183-.82-.366-1.605-.549-2.426-.037-.214-.073-.393-.073-.607 0-.642.402-1.034 1.061-1.034.256 0 .512.035.769.142 1.06.5 2.012 1.178 2.707 2.105.513.678.476 1.285-.146 1.856-.33.321-.695.57-1.025.892-.182.143-.329.321-.512.5a.58.58 0 00-.183.535c0 .036 0 .071.037.143.22-.215.439-.393.658-.571.366-.321.696-.643 1.062-.928.366-.286.732-.535 1.17-.678a.689.689 0 01.257-.071c.585-.143 1.024.107 1.244.642.183.428.22.856.22 1.32 0 .286-.147.464-.403.535-.183.072-.366.107-.549.143-.33.071-.622.143-.951.214-.366.107-.622.357-.659.785l.44-.214c.109-.036.182-.071.292-.107.33-.071.585.036.768.286.11.178.22.356.256.57.183.643.11 1.32-.11 1.963-.182.5-.585.714-1.06.785-.074 0-.147 0-.22-.036-.695-.142-1.354-.392-1.903-.856-.036-.036-.073-.036-.073-.072h-.037v.393c.037.5.11 1 .147 1.499.036.642.073 1.32.11 1.962 0 .357-.11.678-.293 1-.183.32-.44.606-.695.856-.257.25-.476.535-.586.892-.22.642 0 1.213.476 1.641.11.107.292.143.439.179.256.035.549.071.805.071a.766.766 0 00.805-.464c.11-.178.146-.357.183-.57.036-.429.036-.857.11-1.285.073-.571.256-1.107.695-1.5.22-.213.512-.32.805-.356.22-.036.439-.036.659-.036.146 0 .292 0 .439-.035.292-.036.475-.25.402-.535a1.96 1.96 0 00-.146-.429c-.147-.25-.293-.5-.44-.713a2.379 2.379 0 01-.109-.286 2.658 2.658 0 01-.073-.535c0-.5.256-.82.695-1.035.622-.25 1.28-.5 1.94-.714a2.13 2.13 0 00.914-.535c.11-.107.22-.178.33-.25.183-.107.365-.035.475.143.073.143.073.286.11.428.037.143.037.286.037.429a4.855 4.855 0 01-.11 1.784c-.33 1.391-.622 2.819-.769 4.282a6.812 6.812 0 00.074 1.927 92.37 92.37 0 01.475 3.104 10.1 10.1 0 01.073 1.82c0 .142 0 .25-.036.392-.073.25-.256.357-.512.321a1.373 1.373 0 01-.732-.428c-.33-.357-.55-.75-.732-1.177-.33-.75-.476-1.535-.659-2.32-.183-.713-.33-1.463-.512-2.212a5.64 5.64 0 00-.11-.393h-.036c0 .072-.037.143-.037.25-.183 2.034-.44 4.104-.842 6.138-.183.892-.366 1.82-.549 2.712-.11.535-.256 1.07-.402 1.64-.037.108-.037.18-.037.286 0 .179.11.25.293.25.366-.071.732-.107 1.098-.178.402-.072.768-.107 1.17-.036.33.036.586.178.806.428.183.214.183.464.146.714-.073.357-.293.642-.512.928-.44.5-.915.927-1.39 1.391-.367.357-.77.607-1.208.857-.476.25-.988.535-1.464.749-.402.178-.841.357-1.244.535-.293.107-.549.25-.842.393-.402.214-.805.428-1.207.678-.695.428-1.354.892-1.976 1.391l-1.427 1.178c-.183.178-.366.357-.55.5a.755.755 0 01-.548.213c-.183 0-.293-.107-.366-.25-.073-.142-.11-.32 0-.463l.22-.321c.219-.215.292-.429.256-.714 0-.428-.074-.82-.147-1.249-.073-.5-.146-1.035-.11-1.534a2.21 2.21 0 01.366-1.07c.183-.286.476-.429.769-.536.622-.25 1.244-.428 1.903-.57.768-.18 1.537-.358 2.342-.536.146-.036.329-.072.475-.107.11-.036.22-.072.293-.214-.073 0-.11-.036-.146-.036h-.805c-.476 0-.952 0-1.354-.214-.147-.071-.293-.214-.293-.428 0-.143.037-.321.11-.464.073-.143.11-.25.146-.357l.44-1.285c.036-.07.036-.142.036-.214.037-.285-.037-.356-.293-.356h-.33c-1.536.035-3.073.035-4.61-.179a16.546 16.546 0 01-3.476-.892c-.147-.071-.33-.143-.476-.214a904.872 904.872 0 01-6.111-3.533c-2.671-1.57-5.306-3.211-7.977-4.781-.22-.107-.403-.25-.622-.357-.183-.071-.33-.178-.513-.214-.256-.071-.475.036-.585.286-.037.107-.11.214-.11.356-.037.25-.073.464-.073.714.073 1.32.256 2.605.659 3.89.256.82.622 1.57 1.134 2.247.33.464.732.892 1.244 1.178 1.025.607 2.05 1.142 3.184 1.499.183.071.366.107.585.107.22.035.293-.072.256-.286 0-.107-.036-.25-.073-.357-.073-.25-.183-.535-.256-.785-.11-.428-.037-.82.293-1.142.146-.142.33-.214.549-.25.439-.07.878-.035 1.28.143.586.25 1.135.5 1.647.893.403.32.732.678.951 1.141.037.107.074.214.074.321a.64.64 0 01-.22.5 1.01 1.01 0 01-.622.214c-.22 0-.439.036-.659.036-.073 0-.146.035-.146.107-.037.071.037.143.11.214a.625.625 0 00.183.071h.549c.439-.035.878-.178 1.28-.32.366-.144.732-.25 1.062-.358.256-.071.512-.107.805-.035.805.142 1.537.463 2.122 1.034.22.25.402.5.549.821.11.25.11.5 0 .785-.11.321-.366.464-.695.428-.513-.035-1.062-.107-1.574-.142-.256-.036-.549 0-.805 0s-.476.107-.695.178c.11.107.366.214.585.214h1.903c.915 0 1.647.393 2.232 1.035.805.928 1.244 1.998 1.427 3.211.037.357.037.678-.036 1.035-.037.143-.073.321-.183.428-.22.393-.622.536-1.061.393-.256-.072-.476-.214-.695-.357-.513-.321-.989-.714-1.428-1.106a162.44 162.44 0 00-2.561-2.355c-.256-.25-.55-.464-.842-.714a.469.469 0 00-.33-.143l.11.322c.257.677.257.677.806 1.177 1.06.963 2.159 1.927 3.22 2.89.293.286.585.607.732 1 .256.606-.037 1.248-.659 1.498-.768.321-1.537.357-2.305 0-.55-.25-.952-.678-1.244-1.177-.586-1-.989-2.106-1.354-3.212-.256-.713-.476-1.391-.732-2.105a.571.571 0 00-.147-.25c-.329-.357-.402-.392-.512-.392-.073.071-.073.142-.037.214.037.142.074.25.11.392.11.5.256 1 .366 1.535.073.32.073.642.037.999-.037.285-.183.57-.44.749a1.252 1.252 0 01-.731.214c-.659.036-1.244-.107-1.793-.464a3.7 3.7 0 01-1.427-1.641c-.257-.571-.22-1.106.073-1.642.22-.392.512-.713.841-.999.074-.071.183-.142.257-.214l.146-.142c.256-.286.183-.571-.183-.678-.146-.072-.293-.072-.44-.108-.438-.07-.877-.07-1.316-.178-1.464-.25-2.782-.785-4.062-1.534a14.388 14.388 0 01-2.086-1.463 4.04 4.04 0 01-.659-.714c-1.098-1.32-1.756-2.855-2.159-4.496-.475-1.998-.695-4.103-.549-6.244.074-1.213.293-2.391.622-3.533.147-.5.33-.999.623-1.463a3.62 3.62 0 01.475-.57c.403-.322.842-.429 1.354-.286.33.071.586.214.878.392.293.179.55.393.806.607 1.976 1.784 4.061 3.461 6.33 4.924 1.683 1.07 3.44 2.034 5.38 2.712.219.071.438.143.621.214.256.072.476.178.695.25.11.035.257.107.403.107.183.036.293-.072.256-.25-.036-.321-.073-.607-.366-.82a8.274 8.274 0 00-1.317-.857c-1.171-.535-2.196-1.285-3.184-2.07-1.097-.856-2.122-1.784-3-2.819-.805-.927-1.574-1.926-2.16-3.033a12.596 12.596 0 01-.768-1.57c-.475-1.248-.695-2.533-.402-3.853.22-.928.732-1.713 1.463-2.32.732-.606 1.574-1.034 2.525-1.32 1.318-.392 2.635-.713 4.026-.82 1.28-.108 2.561 0 3.805.356a9.24 9.24 0 012.342 1.07c1.281.857 2.013 2.035 2.27 3.533.292 1.927.438 3.89.402 5.852a33.875 33.875 0 01-.403 4.318c-.037.143-.037.285-.037.464.037.32.22.464.55.357a6.324 6.324 0 001.426-.607l1.757-.963c.366-.215.658-.464.915-.821.183-.286.292-.571.292-.928a37.567 37.567 0 00-.146-2.034c0-.071 0-.107-.037-.178-.036-.143-.073-.179-.22-.179-.109 0-.255.036-.365.036-.33.036-.659.071-1.025.071h-.475c-.366 0-.622-.142-.842-.464-.293-.463-.585-.927-.695-1.462-.11-.5-.11-.964.11-1.463.22-.536.585-.714 1.134-.464a3.86 3.86 0 011.427.963c.073.25.256.464.44.678z">
        </path>
    </g>
    <defs>
        <clipPath id="dba2c78f-801c-4f91-84c2-443db0e4af08">
            <path fill="#fff" d="M0 0h56v56H0z"></path>
        </clipPath>
    </defs>
</svg>