<svg class="IconWrap-module__9M-XmW__icon ButtonMode-module__6wivga__icon" xmlns="http://www.w3.org/2000/svg" width="24" height="24" viewBox="0 0 56 56" fill="none"><path stroke="#fff" stroke-miterlimit="10" stroke-width="2.111" d="M28 54.645c14.716 0 26.645-11.93 26.645-26.645S42.715 1.355 28 1.355 1.355 13.285 1.355 28 13.285 54.645 28 54.645Z"></path><path stroke="#fff" stroke-linecap="round" stroke-linejoin="round" stroke-width="2.111" d="M27.955 32.84a4.886 4.886 0 1 0 0-9.77 4.886 4.886 0 0 0 0 9.77"></path><path stroke="#fff" stroke-linecap="round" stroke-linejoin="round" stroke-width="2.111" d="M38.33 43.537H17.721a5.203 5.203 0 0 1-5.207-5.207V17.721a5.203 5.203 0 0 1 5.207-5.207h20.61a5.203 5.203 0 0 1 5.206 5.207v20.61a5.22 5.22 0 0 1-5.207 5.206"></path></svg>