<svg class="IconWrap-module__9M-XmW__icon ButtonMode-module__6wivga__icon" xmlns="http://www.w3.org/2000/svg" width="24" height="24" viewBox="0 0 56 56" fill="none"><g stroke="#fff" stroke-linecap="round" stroke-linejoin="round" stroke-miterlimit="10" stroke-width="1.7" clip-path="url(#4cad7555-6516-42f2-8469-95d95e2ba01f)"><path d="M28 54.833c14.82 0 26.833-12.014 26.833-26.833C54.833 13.18 42.82 1.167 28 1.167 13.18 1.167 1.167 13.18 1.167 28 1.167 42.82 13.18 54.833 28 54.833zm18.136-7.55v-9.66m0-19.283V8.68m0 28.943V28m0 0v-9.66M34.033 37.623v9.66m0-28.943V28m0 0v9.623m0-35.753v6.81m0 45.413v-6.81m0-28.943V8.68M21.93 37.623v9.66m0 0v6.81m0-26.093v-9.66m0-9.66v9.66m0 9.66v9.623m0-35.753v6.81M9.827 37.623v9.66m0-28.943V8.68m0 9.66V28m0 9.623V28m43.156-9.66h-6.847m-36.309 0H21.93m-18.95 0h6.847m12.103 0h12.103m0 0h12.102M9.827 28H21.93m32.46 0h-8.254m-12.103 0h12.102M1.574 28h8.253m12.103 0h12.103m18.95 9.623h-6.847m-12.103 0h12.102m-36.308 0H2.98m18.95 0h12.103m-24.206 0H21.93m0 9.66H9.827m24.206 0h12.102m-24.205 0h12.103M46.136 8.68H34.032m.001 0H21.93m-12.103 0H21.93m0 28.943v9.66m0 0v6.81m0-26.093v-9.66m0-9.66v9.66m0 9.66v9.623m0-35.753v6.81M9.827 37.623v9.66m0-28.943V8.68m0 9.66V28m0 9.623V28m0-9.66H21.93m-18.95 0h6.847m12.103 0h12.103M9.827 28H21.93M1.574 28h8.253m12.103 0h12.103M9.827 37.623H2.98m18.95 0h12.103m-24.206 0H21.93m0 9.66H9.827m12.103 0h12.103m0-38.603H21.93m-12.103 0H21.93"></path></g><defs><clipPath id="4cad7555-6516-42f2-8469-95d95e2ba01f"><path fill="#fff" d="M0 0h56v56H0z"></path></clipPath></defs></svg>