<svg class="IconWrap-module__9M-XmW__icon ButtonMode-module__6wivga__icon" xmlns="http://www.w3.org/2000/svg" width="24" height="24" viewBox="0 0 56 56" fill="none"><path stroke="#fff" stroke-miterlimit="10" stroke-width="2" d="M28 53.5c14.083 0 25.5-11.417 25.5-25.5S42.083 2.5 28 2.5 2.5 13.917 2.5 28 13.917 53.5 28 53.5z"></path><path stroke="#fff" stroke-linecap="round" stroke-linejoin="round" stroke-miterlimit="10" stroke-width="2" d="M33.664 8.657L28 14.32l-5.636-5.663"></path><path stroke="#787878" stroke-linecap="round" stroke-linejoin="round" stroke-miterlimit="10" stroke-width="2" d="M31.912 16.975l-3.913 3.885-3.885-3.885"></path><path stroke="#fff" stroke-linecap="round" stroke-linejoin="round" stroke-miterlimit="10" stroke-width="2" d="M33.664 22.5L28 28.138 22.364 22.5m0 24.873L28 41.709l5.664 5.664"></path><path stroke="#787878" stroke-linecap="round" stroke-linejoin="round" stroke-miterlimit="10" stroke-width="2" d="M24.114 39.053L28 35.168l3.913 3.885"></path><path stroke="#fff" stroke-linecap="round" stroke-linejoin="round" stroke-miterlimit="10" stroke-width="2" d="M22.364 33.528L28 27.89l5.664 5.637M8.655 22.363l5.637 5.664-5.637 5.636"></path><path stroke="#787878" stroke-linecap="round" stroke-linejoin="round" stroke-miterlimit="10" stroke-width="2" d="M16.946 24.116l3.913 3.885-3.913 3.913"></path><path stroke="#fff" stroke-linecap="round" stroke-linejoin="round" stroke-miterlimit="10" stroke-width="2" d="M47.37 33.663l-5.663-5.664 5.664-5.636"></path><path stroke="#787878" stroke-linecap="round" stroke-linejoin="round" stroke-miterlimit="10" stroke-width="2" d="M39.053 31.914l-3.885-3.885 3.885-3.913M18.944 10.518v8.427h-8.427M37.056 45.51v-8.427h8.455m-34.994 0h8.427v8.427M45.51 18.945h-8.453v-8.427"></path><path stroke="#fff" stroke-linecap="round" stroke-linejoin="round" stroke-miterlimit="10" stroke-width="2" d="M37.056 18.944l5.363-5.336M13.58 42.419l5.363-5.336m18.113 0l5.363 5.336M13.58 13.608l5.363 5.336M43.568 28h4.815M7.615 28h4.843M28 12.46V7.619m0 40.793v-4.843"></path></svg>