<svg class="IconWrap-module__9M-XmW__icon ButtonMode-module__6wivga__icon" xmlns="http://www.w3.org/2000/svg" width="24" height="24" viewBox="0 0 56 56" fill="none"><g stroke="#fff" stroke-width="2.108" clip-path="url(#clip0_5964_3232)"><path stroke-miterlimit="10" d="M28.15 54.495c14.716 0 26.646-11.93 26.646-26.645S42.866 1.203 28.15 1.203 1.505 13.134 1.505 27.85c0 14.715 11.93 26.645 26.646 26.645Z"></path><path stroke-linecap="round" stroke-linejoin="round" d="M42.758 34.11c0 8.065-6.54 14.605-14.605 14.605s-14.605-6.54-14.605-14.606S28.241 8.425 28.301 8.425 42.758 26.044 42.758 34.11M28.301 8.425v46.073"></path><path stroke-linecap="round" stroke-linejoin="round" d="M41.643 29.363 28.197 42.807 14.753 29.362"></path><path stroke-linecap="round" stroke-linejoin="round" d="m36.989 21.78-8.86 8.859-8.86-8.86"></path></g><defs><clipPath id="clip0_5964_3232"><path fill="#fff" d="M0 0h56v56H0z"></path></clipPath></defs></svg>