<svg class="IconWrap-module__9M-XmW__icon ButtonMode-module__6wivga__icon" xmlns="http://www.w3.org/2000/svg" width="24" height="24" viewBox="0 0 56 56" fill="none"><g stroke="#fff" stroke-linecap="round" stroke-linejoin="round" stroke-miterlimit="10" stroke-width="1.7" clip-path="url(#897c54f9-25b8-4177-96db-93f7022d6e95)"><path d="M4.944 41.397c7.399 12.734 23.72 17.058 36.453 9.66 12.734-7.4 17.058-23.72 9.66-36.454-7.4-12.734-23.72-17.058-36.454-9.66-12.734 7.4-17.058 23.72-9.66 36.454zm15.313-25.908l7.971-13.807M9.646 33.761l6.374-11.04M28.509 54.6l11.06-19.157m4.176-7.258l7.39-12.8M2.143 33.247L13.307 13.91m29.967 28.495l10.832-18.762m-34.003 5.385L31.163 9.87M9.668 47.052l6.23-10.791m12.675 4.851L46.568 9.944M29.337 26.395l12.187-21.11M18.76 44.644l6.374-11.04"></path></g><defs><clipPath id="897c54f9-25b8-4177-96db-93f7022d6e95"><path fill="#fff" d="M0 0h56v56H0z"></path></clipPath></defs></svg>