<svg class="IconWrap-module__9M-XmW__icon ButtonMode-module__6wivga__icon" xmlns="http://www.w3.org/2000/svg" width="24" height="24" viewBox="0 0 56 56" fill="none"><g stroke="#fff" stroke-linecap="round" stroke-miterlimit="10" stroke-width="1.7" clip-path="url(#25a55b3d-62d5-4ecc-9aae-a77a70379c9c)"><path stroke-linejoin="round" d="M28 54.833c14.82 0 26.833-12.014 26.833-26.833C54.833 13.18 42.82 1.167 28 1.167 13.18 1.167 1.167 13.18 1.167 28 1.167 42.82 13.18 54.833 28 54.833z"></path><path d="M27.896 47.244V8.679M28 28.651c3.383-4.739 7.95-9.14 13.533-12.694M28 28.651a45.704 45.704 0 0115.563-5.247"></path><path d="M28 28.652c1.86-6.093 4.567-12.187 7.95-17.941M28 28.651c-1.861-6.093-4.568-12.017-8.12-17.772M28 28.651a45.704 45.704 0 00-15.563-5.247M28 28.651c-3.383-4.739-7.95-9.14-13.533-12.694"></path></g><defs><clipPath id="25a55b3d-62d5-4ecc-9aae-a77a70379c9c"><path fill="#fff" d="M0 0h56v56H0z"></path></clipPath></defs></svg>