<svg class="IconWrap-module__9M-XmW__icon ButtonMode-module__6wivga__icon" xmlns="http://www.w3.org/2000/svg" width="24" height="24" viewBox="0 0 56 56" fill="none"> <g stroke="#fff" stroke-linecap="round" stroke-linejoin="round" stroke-miterlimit="10" stroke-width="1.7" clip-path="url(#45fa593b-66ca-4d71-aa25-409c7cb4fccb)"><path d="M28 54.833c14.82 0 26.833-12.014 26.833-26.833C54.833 13.18 42.82 1.167 28 1.167 13.18 1.167 1.167 13.18 1.167 28 1.167 42.82 13.18 54.833 28 54.833z"></path><path d="M54.426 28c-13.25 0-13.25-19.505-26.5-19.505S14.676 28 1.426 28m53 0c-13.25 0-13.25 19.505-26.5 19.505S14.676 28 1.426 28"></path><path d="M46.395 47.468C28 47.468 28 8.42 9.568 8.42M54.426 28H1.574"></path></g><defs><clipPath id="45fa593b-66ca-4d71-aa25-409c7cb4fccb"><path fill="#fff" d="M0 0h56v56H0z"></path></clipPath></defs></svg>