<svg class="IconWrap-module__9M-XmW__icon ButtonMode-module__6wivga__icon" xmlns="http://www.w3.org/2000/svg" width="24" height="24" viewBox="0 0 56 56" fill="none"><g clip-path="url(#f6d34b56-5442-4636-a7ca-ca43143f19ae)"><path stroke="#fff" stroke-linecap="round" stroke-linejoin="round" stroke-miterlimit="10" stroke-width="1.7" d="M28 54.835c14.82 0 26.835-12.014 26.835-26.835C54.835 13.18 42.821 1.165 28 1.165 13.18 1.165 1.165 13.18 1.165 28S13.179 54.835 28 54.835z"></path><path fill="#fff" stroke="#fff" stroke-linejoin="round" stroke-miterlimit="10" stroke-width="1.7" d="M28.148 20.782a.481.481 0 100-.962.481.481 0 000 .962zm15.767 0a.481.481 0 100-.962.481.481 0 000 .962zm-15.767 9.217a.481.481 0 100-.962.481.481 0 000 .962zm15.767 0a.481.481 0 100-.962.481.481 0 000 .962zm-7.883-4.59a.481.481 0 100-.962.481.481 0 000 .962zm0 8.847a.481.481 0 100-.963.481.481 0 000 .963zm0-17.693a.481.481 0 100-.962.481.481 0 000 .962z"></path><path stroke="#fff" stroke-linecap="round" stroke-linejoin="round" stroke-miterlimit="10" stroke-width="1.7" d="M35.773 43.287c-10.142 0-18.359-8.217-18.359-18.359 0-7.18 4.145-13.436 10.179-16.434-10.586.222-19.1 8.846-19.1 19.506 0 10.771 8.736 19.506 19.507 19.506a19.46 19.46 0 0012.992-4.96c-1.666.445-3.405.74-5.22.74z"></path><circle cx="36.033" cy="16.081" r="0.877" fill="#fff"></circle><circle cx="43.916" cy="20.301" r="0.877" fill="#fff"></circle><circle cx="43.916" cy="29.518" r="0.877" fill="#fff"></circle><circle cx="36.032" cy="24.928" r="0.878" fill="#fff"></circle><circle cx="36.033" cy="33.774" r="0.877" fill="#fff"></circle><circle cx="28.148" cy="29.518" r="0.877" fill="#fff"></circle><circle cx="28.148" cy="20.301" r="0.877" fill="#fff"></circle></g><defs><clipPath id="f6d34b56-5442-4636-a7ca-ca43143f19ae"><path fill="#fff" d="M0 0h56v56H0z"></path></clipPath></defs></svg>