<svg class="IconWrap-module__9M-XmW__icon ButtonMode-module__6wivga__icon" xmlns="http://www.w3.org/2000/svg" width="24" height="24" viewBox="0 0 56 56" fill="none"><g stroke="#fff" stroke-miterlimit="10" stroke-width="1.7" clip-path="url(#ecc8544f-1761-44b8-be60-cace3e86dc03)"><path stroke-linecap="round" stroke-linejoin="round" d="M4.732 41.52C12.2 54.37 28.67 58.735 41.52 51.268 54.37 43.8 58.735 27.33 51.268 14.48 43.8 1.63 27.33-2.735 14.48 4.732 1.63 12.2-2.735 28.67 4.732 41.52z"></path><path d="M16.265 28.059c0-3.971 1.926-7.493 4.894-9.682a6.762 6.762 0 10-4.814 11.07c-.053-.455-.08-.918-.08-1.388zm0 0c0 6.64 5.383 12.021 12.022 12.021 2.622 0 5.048-.84 7.024-2.264a6.737 6.737 0 01-1.728-4.516m-17.318-5.24c0-6.64 5.383-12.022 12.022-12.022 6.125 0 11.18 4.58 11.927 10.502a6.762 6.762 0 00-6.631 6.761m0 0a6.762 6.762 0 1013.524 0 6.762 6.762 0 00-13.524 0z"></path></g><defs><clipPath id="ecc8544f-1761-44b8-be60-cace3e86dc03"><path fill="#fff" d="M0 0h56v56H0z"></path></clipPath></defs></svg>