<svg class="IconWrap-module__9M-XmW__icon ButtonMode-module__6wivga__icon" xmlns="http://www.w3.org/2000/svg" width="24" height="24" viewBox="0 0 56 56" fill="none"><g stroke="#fff" stroke-linecap="round" stroke-linejoin="round" stroke-miterlimit="10" stroke-width="1.7" clip-path="url(#ed82bf7c-9bdb-47a7-8457-f752df1d4bfc)"><path d="M28 54.835c14.82 0 26.835-12.014 26.835-26.835C54.835 13.18 42.821 1.165 28 1.165 13.18 1.165 1.165 13.18 1.165 28S13.179 54.835 28 54.835z"></path><path d="M4.063 16.617c6.626 2.904 12.852-11.785 23.936-1.102v26.09c-8.64-7.973-13.135 2.369-20.882 2.428m44.818-27.414c-6.627 2.904-12.853-11.785-23.936-1.102v26.09c8.695-8.023 13.19 2.5 21.028 2.428"></path><path d="M23.275 17.552c-5.842-2.22-10.165 2.587-14.489 4.29m14.489 1.001c-5.726-2.003-9.948 2.988-14.489 4.523m14.489.785c-5.609-1.786-9.715 3.355-14.489 4.74m14.489.584c-5.442-1.552-9.431 3.69-14.455 4.908m23.902-20.831c5.842-2.22 10.166 2.587 14.489 4.29m-14.489 1.001c5.725-2.003 9.948 2.988 14.489 4.523m-14.489.785c5.609-1.786 9.715 3.355 14.489 4.74m-14.489.584c5.442-1.552 9.431 3.69 14.455 4.908"></path></g><defs><clipPath id="ed82bf7c-9bdb-47a7-8457-f752df1d4bfc"><path fill="#fff" d="M0 0h56v56H0z"></path></clipPath></defs></svg>