<svg class="IconWrap-module__9M-XmW__icon ButtonMode-module__6wivga__icon" xmlns="http://www.w3.org/2000/svg" width="24" height="24" viewBox="0 0 56 56" fill="none"><g stroke="#fff" stroke-linecap="round" stroke-linejoin="round" stroke-miterlimit="10" stroke-width="1.7" clip-path="url(#12e36d2a-a18e-40a5-ba3a-c54b42fe3354)"><path d="M28 54.833c14.82 0 26.833-12.014 26.833-26.833C54.833 13.18 42.82 1.167 28 1.167 13.18 1.167 1.167 13.18 1.167 28 1.167 42.82 13.18 54.833 28 54.833z"></path><path d="M28 1.267c7.41 0 13.417 5.907 13.417 13.316C41.417 21.993 35.409 28 28 28c-7.41 0-13.416 6.007-13.416 13.416 0 7.41 6.007 13.417 13.416 13.417"></path><path d="M28 19.69a5.106 5.106 0 100-10.213 5.106 5.106 0 000 10.212zm0 26.833a5.106 5.106 0 100-10.213 5.106 5.106 0 000 10.213z"></path></g><defs><clipPath id="12e36d2a-a18e-40a5-ba3a-c54b42fe3354"><path fill="#fff" d="M0 0h56v56H0z"></path></clipPath></defs></svg>