<svg class="IconWrap-module__9M-XmW__icon ButtonMode-module__6wivga__icon" xmlns="http://www.w3.org/2000/svg" width="24" height="24" viewBox="0 0 56 56" fill="none"><g clip-path="url(#1589de79-2084-4e9a-a95e-3e81e41a442d)"><path stroke="#fff" stroke-linecap="round" stroke-linejoin="round" stroke-width="1.7" d="M28 54.6c14.69 0 26.6-11.91 26.6-26.6C54.6 13.31 42.69 1.4 28 1.4 13.31 1.4 1.4 13.31 1.4 28c0 14.69 11.91 26.6 26.6 26.6z"></path><path stroke="#fff" stroke-linecap="round" stroke-miterlimit="10" stroke-width="1.7" d="M8.29 45.274l2.394-1.11a10.518 10.518 0 018.846 0l4.107 1.903a10.514 10.514 0 008.846 0l4.093-1.895a10.517 10.517 0 018.866 0l2.178 1.02M3.851 38.157a6.45 6.45 0 00.974-.357l5.858-2.725a10.52 10.52 0 018.847 0l4.107 1.903a10.513 10.513 0 008.846 0l4.093-1.895a10.504 10.504 0 018.866.015l5.734 2.674c.397.186.813.33 1.241.43M2.153 29.31c.923 0 1.834-.2 2.672-.588l5.858-2.714a10.52 10.52 0 018.847 0l4.1 1.904a10.514 10.514 0 008.848 0l4.092-1.895a10.516 10.516 0 018.867 0l5.733 2.677a6.356 6.356 0 002.685.593"></path><circle cx="39.415" cy="11.189" r="0.865" fill="#fff"></circle><path fill="#fff" stroke="#fff" stroke-linejoin="round" stroke-miterlimit="10" stroke-width="1.7" d="M39.332 11.877a.688.688 0 100-1.377.688.688 0 000 1.377z"></path><circle cx="44.922" cy="18.865" r="1.032" fill="#fff"></circle><path fill="#fff" stroke="#fff" stroke-linejoin="round" stroke-miterlimit="10" stroke-width="1.7" d="M44.922 19.553a.688.688 0 100-1.376.688.688 0 000 1.376z"></path><circle cx="33.73" cy="18.865" r="0.865" fill="#fff"></circle><path fill="#fff" stroke="#fff" stroke-linejoin="round" stroke-miterlimit="10" stroke-width="1.7" d="M33.73 19.34a.474.474 0 100-.95.474.474 0 000 .95z"></path><circle cx="33.641" cy="18.865" r="1.032" fill="#fff"></circle><path fill="#fff" stroke="#fff" stroke-linejoin="round" stroke-miterlimit="10" stroke-width="1.7" d="M33.64 19.553a.688.688 0 100-1.376.688.688 0 000 1.376z"></path><circle cx="22.36" cy="18.865" r="1.032" fill="#fff"></circle><path fill="#fff" stroke="#fff" stroke-linejoin="round" stroke-miterlimit="10" stroke-width="1.7" d="M22.36 19.553a.688.688 0 100-1.376.688.688 0 000 1.376z"></path><circle cx="10.824" cy="18.866" r="1.032" fill="#fff"></circle><path fill="#fff" stroke="#fff" stroke-linejoin="round" stroke-miterlimit="10" stroke-width="1.7" d="M10.823 19.554a.688.688 0 100-1.377.688.688 0 000 1.377z"></path><circle cx="28" cy="11.189" r="1.032" fill="#fff"></circle><path fill="#fff" stroke="#fff" stroke-linejoin="round" stroke-miterlimit="10" stroke-width="1.7" d="M28 11.877a.688.688 0 100-1.377.688.688 0 000 1.377z"></path><circle cx="16.668" cy="11.189" r="1.032" fill="#fff"></circle><path fill="#fff" stroke="#fff" stroke-linejoin="round" stroke-miterlimit="10" stroke-width="1.7" d="M16.667 11.877a.688.688 0 100-1.376.688.688 0 000 1.376z"></path></g><defs><clipPath id="1589de79-2084-4e9a-a95e-3e81e41a442d"><path fill="#fff" d="M0 0h56v56H0z"></path></clipPath></defs></svg>